<svg width="95" height="105" viewBox="0 0 95 105" fill="none" xmlns="http://www.w3.org/2000/svg">
<path d="M8.20264 3.23535C13.7248 0.408938 20.4932 2.59415 23.3198 8.11621L47.436 55.2334L71.5532 8.11621C74.3799 2.59421 81.1483 0.408833 86.6704 3.23535C92.1929 6.062 94.3778 12.8304 91.5513 18.3525L57.5356 84.8066C55.5924 88.6031 51.7867 90.8231 47.8032 90.9209H47.0698C43.0862 90.8232 39.2797 88.6032 37.3364 84.8066L3.32178 18.3525C0.495195 12.8303 2.68036 6.06193 8.20264 3.23535Z" fill="#5C2494"/>
<path d="M8.20264 3.23535L7.48503 1.83333L7.48501 1.83334L8.20264 3.23535ZM23.3198 8.11621L24.7218 7.39861L24.7218 7.39856L23.3198 8.11621ZM47.436 55.2334L46.034 55.951L47.436 58.6902L48.838 55.951L47.436 55.2334ZM71.5532 8.11621L70.1512 7.39855L70.1512 7.39858L71.5532 8.11621ZM86.6704 3.23535L85.9528 4.63736L85.9528 4.63737L86.6704 3.23535ZM91.5513 18.3525L92.9533 19.0702L92.9533 19.0702L91.5513 18.3525ZM57.5356 84.8066L56.1336 84.089L56.1336 84.089L57.5356 84.8066ZM47.8032 90.9209V92.4959H47.8226L47.8419 92.4954L47.8032 90.9209ZM47.0698 90.9209L47.0312 92.4954L47.0505 92.4959H47.0698V90.9209ZM37.3364 84.8066L38.7384 84.089L38.7384 84.089L37.3364 84.8066ZM3.32178 18.3525L4.72379 17.6349L4.72379 17.6349L3.32178 18.3525ZM8.20264 3.23535L8.92024 4.63738C13.6681 2.20726 19.4876 4.08612 21.9178 8.83386L23.3198 8.11621L24.7218 7.39856C21.4988 1.10218 13.7814 -1.38938 7.48503 1.83333L8.20264 3.23535ZM23.3198 8.11621L21.9178 8.83382L46.034 55.951L47.436 55.2334L48.8381 54.5158L24.7218 7.39861L23.3198 8.11621ZM47.436 55.2334L48.838 55.951L72.9552 8.83384L71.5532 8.11621L70.1512 7.39858L46.034 54.5158L47.436 55.2334ZM71.5532 8.11621L72.9552 8.83388C75.3855 4.08614 81.205 2.20718 85.9528 4.63736L86.6704 3.23535L87.388 1.83334C81.0916 -1.38952 73.3742 1.10229 70.1512 7.39855L71.5532 8.11621ZM86.6704 3.23535L85.9528 4.63737C90.7009 7.06764 92.5795 12.887 90.1493 17.6349L91.5513 18.3525L92.9533 19.0702C96.176 12.7738 93.685 5.05636 87.388 1.83333L86.6704 3.23535ZM91.5513 18.3525L90.1493 17.6349L56.1336 84.089L57.5356 84.8066L58.9376 85.5243L92.9533 19.0702L91.5513 18.3525ZM57.5356 84.8066L56.1336 84.089C54.4637 87.3515 51.1939 89.2621 47.7646 89.3464L47.8032 90.9209L47.8419 92.4954C52.3796 92.384 56.7211 89.8548 58.9377 85.5243L57.5356 84.8066ZM47.8032 90.9209V89.3459H47.0698V90.9209V92.4959H47.8032V90.9209ZM47.0698 90.9209L47.1085 89.3464C43.6789 89.2622 40.4083 87.3515 38.7384 84.089L37.3364 84.8066L35.9344 85.5243C38.1511 89.855 42.4934 92.3841 47.0312 92.4954L47.0698 90.9209ZM37.3364 84.8066L38.7384 84.089L4.72379 17.6349L3.32178 18.3525L1.91976 19.0702L35.9344 85.5243L37.3364 84.8066ZM3.32178 18.3525L4.72379 17.6349C2.29352 12.887 4.17234 7.06759 8.92026 4.63737L8.20264 3.23535L7.48501 1.83334C1.18839 5.05627 -1.30313 12.7737 1.91977 19.0702L3.32178 18.3525Z" fill="#5C2494"/>
<path d="M47.7178 14.3416C51.7011 14.4395 55.5069 16.6587 57.4502 20.4549L91.4648 86.909C94.2918 92.4313 92.1062 99.1997 86.584 102.026C81.0618 104.853 74.2943 102.667 71.4678 97.1454L47.3506 50.0282L23.2334 97.1454C20.4068 102.667 13.6394 104.853 8.11719 102.026C2.59496 99.1997 0.409746 92.4313 3.23633 86.909L37.251 20.4549C39.1943 16.6584 43.0008 14.4393 46.9844 14.3416H47.7178Z" fill="#763AB3"/>
<path d="M47.7178 14.3416L47.7565 12.7671L47.7371 12.7666H47.7178V14.3416ZM57.4502 20.4549L58.8522 19.7373L58.8522 19.7373L57.4502 20.4549ZM91.4648 86.909L90.0628 87.6267L90.0629 87.6267L91.4648 86.909ZM86.584 102.026L87.3016 103.428L87.3016 103.428L86.584 102.026ZM71.4678 97.1454L72.8698 96.4277L72.8698 96.4277L71.4678 97.1454ZM47.3506 50.0282L48.7526 49.3105L47.3506 46.5715L45.9486 49.3105L47.3506 50.0282ZM23.2334 97.1454L24.6354 97.863L24.6354 97.863L23.2334 97.1454ZM8.11719 102.026L7.39957 103.428L7.39959 103.428L8.11719 102.026ZM3.23633 86.909L4.63834 87.6267L4.63834 87.6267L3.23633 86.909ZM37.251 20.4549L35.849 19.7373L35.849 19.7373L37.251 20.4549ZM46.9844 14.3416V12.7666H46.9651L46.9458 12.7671L46.9844 14.3416ZM47.7178 14.3416L47.6791 15.9162C51.1084 16.0004 54.3784 17.9106 56.0482 21.1726L57.4502 20.4549L58.8522 19.7373C56.6355 15.4069 52.2938 12.8786 47.7565 12.7671L47.7178 14.3416ZM57.4502 20.4549L56.0482 21.1725L90.0628 87.6267L91.4648 86.909L92.8669 86.1914L58.8522 19.7373L57.4502 20.4549ZM91.4648 86.909L90.0629 87.6267C92.4934 92.3746 90.6143 98.194 85.8664 100.624L86.584 102.026L87.3016 103.428C93.5981 100.205 96.0903 92.4879 92.8668 86.1913L91.4648 86.909ZM86.584 102.026L85.8664 100.624C81.1185 103.054 75.2999 101.176 72.8698 96.4277L71.4678 97.1454L70.0658 97.863C73.2886 104.159 81.0051 106.651 87.3016 103.428L86.584 102.026ZM71.4678 97.1454L72.8698 96.4277L48.7526 49.3105L47.3506 50.0282L45.9486 50.7458L70.0658 97.863L71.4678 97.1454ZM47.3506 50.0282L45.9486 49.3105L21.8314 96.4277L23.2334 97.1454L24.6354 97.863L48.7526 50.7458L47.3506 50.0282ZM23.2334 97.1454L21.8314 96.4277C19.4011 101.176 13.5827 103.054 8.83478 100.624L8.11719 102.026L7.39959 103.428C13.6961 106.651 21.4125 104.159 24.6354 97.863L23.2334 97.1454ZM8.11719 102.026L8.83481 100.624C4.08694 98.194 2.20807 92.3746 4.63834 87.6267L3.23633 86.909L1.83432 86.1914C-1.38858 92.4879 1.10298 100.205 7.39957 103.428L8.11719 102.026ZM3.23633 86.909L4.63834 87.6267L38.653 21.1725L37.251 20.4549L35.849 19.7373L1.83431 86.1914L3.23633 86.909ZM37.251 20.4549L38.653 21.1726C40.3228 17.9104 43.5933 16.0003 47.023 15.9162L46.9844 14.3416L46.9458 12.7671C42.4083 12.8784 38.0658 15.4065 35.849 19.7373L37.251 20.4549ZM46.9844 14.3416V15.9166H47.7178V14.3416V12.7666H46.9844V14.3416Z" fill="#763AB3"/>
</svg>
