<svg xmlns="http://www.w3.org/2000/svg" viewBox="-6 -6 192 192" fill="none">
  <path d="M 116.547 173.729 L 121.547 173.729 L 121.547 173.729 L 116.547 173.729 Z M 126.788 177.974 L 130.322 181.511 L 130.322 181.511 L 126.788 177.974 Z M 116.547 70.206 L 121.547 70.206 L 121.547 70.206 L 116.547 70.206 Z M 116.547 128 L 111.547 128 L 111.547 128 L 116.547 128 Z M 6.005 64.206 L 6 69.206 L 6.005 69.206 L 6.005 64.206 Z M 1.765 53.967 L 5.304 57.499 L 5.341 57.462 L 5.377 57.424 L 1.765 53.967 Z M 44.284 11.5 L 47.733 15.12 L 47.733 15.12 L 44.284 11.5 Z M 116.547 170.5 L 111.547 170.5 L 111.547 170.5 L 116.547 170.5 Z M 176 128.851 L 179.536 132.386 L 179.596 132.326 L 179.654 132.263 L 176 128.851 Z M 111.547 173.729 C 111.547 183.527 123.391 188.436 130.322 181.511 L 123.254 174.437 C 123.047 174.644 122.875 174.706 122.741 174.729 C 122.581 174.757 122.376 174.741 122.165 174.653 C 121.953 174.565 121.797 174.432 121.703 174.299 C 121.625 174.188 121.547 174.022 121.547 173.729 L 111.547 173.729 Z M 110.547 69.206 C 111.1 69.206 111.547 69.654 111.547 70.206 L 121.547 70.206 C 121.547 64.131 116.623 59.206 110.547 59.206 L 110.547 69.206 Z M 111.547 70.206 L 111.547 128 L 121.547 128 L 121.547 70.206 L 111.547 70.206 Z M 175.314 6 L 175.314 122 L 185.314 122 L 185.314 6 L 175.314 6 Z M 174.314 5 C 174.866 5 175.314 5.448 175.314 6 L 185.314 6 C 185.314 -0.075 180.389 -5 174.314 -5 L 174.314 5 Z M 58.314 5 L 174.314 5 L 174.314 -5 L 58.314 -5 L 58.314 5 Z M 6.01 59.206 C 5.718 59.206 5.553 59.128 5.442 59.05 C 5.309 58.956 5.176 58.8 5.088 58.588 C 5.001 58.377 4.985 58.173 5.013 58.012 C 5.036 57.879 5.097 57.707 5.304 57.499 L -1.774 50.436 C -8.69 57.365 -3.787 69.195 6 69.206 L 6.01 59.206 Z M 5.377 57.424 L 7.739 54.957 L 0.514 48.043 L -1.847 50.51 L 5.377 57.424 Z M 0.591 47.964 L -1.77 50.326 L 5.301 57.397 L 7.662 55.036 L 0.591 47.964 Z M 4.126 51.5 C 7.671 55.026 7.672 55.026 7.672 55.026 C 7.672 55.025 7.672 55.025 7.673 55.025 C 7.674 55.024 7.675 55.022 7.677 55.02 C 7.681 55.016 7.687 55.01 7.695 55.002 C 7.711 54.986 7.735 54.962 7.766 54.931 C 7.829 54.868 7.922 54.774 8.044 54.652 C 8.287 54.407 8.646 54.047 9.104 53.586 C 10.022 52.665 11.34 51.34 12.945 49.73 C 16.154 46.51 20.506 42.146 25.079 37.571 C 34.255 28.393 44.239 18.448 47.733 15.12 L 40.834 7.88 C 37.23 11.315 27.136 21.37 18.007 30.501 C 13.429 35.081 9.072 39.449 5.861 42.672 C 4.255 44.283 2.936 45.609 2.017 46.531 C 1.558 46.992 1.199 47.353 0.955 47.598 C 0.833 47.721 0.74 47.815 0.677 47.878 C 0.645 47.91 0.622 47.934 0.606 47.95 C 0.598 47.958 0.592 47.964 0.588 47.968 C 0.586 47.97 0.584 47.971 0.583 47.972 C 0.583 47.973 0.582 47.973 0.582 47.974 C 0.582 47.974 0.581 47.974 4.126 51.5 Z M 47.733 15.12 C 50.823 12.175 53.855 9.385 56.272 7.351 C 57.491 6.326 58.464 5.569 59.161 5.094 C 59.515 4.852 59.697 4.753 59.737 4.733 C 59.948 4.629 59.339 5 58.314 5 L 58.314 -5 C 56.902 -5 55.758 -4.455 55.306 -4.231 C 54.684 -3.924 54.074 -3.542 53.527 -3.168 C 52.421 -2.414 51.15 -1.408 49.834 -0.301 C 47.179 1.933 43.97 4.892 40.834 7.88 L 47.733 15.12 Z M 6.005 69.206 L 110.547 69.206 L 110.547 59.206 L 6.005 59.206 L 6.005 69.206 Z M 130.322 181.511 L 133.034 178.802 L 125.966 171.727 L 123.254 174.437 L 130.322 181.511 Z M 111.547 128 L 111.547 170.5 L 121.547 170.5 L 121.547 128 L 111.547 128 Z M 111.547 170.5 L 111.547 173.729 L 121.547 173.729 L 121.547 170.5 L 111.547 170.5 Z M 175.314 122 C 175.314 121.488 175.453 121.285 175.35 121.519 C 175.268 121.706 175.095 122.026 174.788 122.478 C 174.172 123.384 173.289 124.428 172.346 125.438 L 179.654 132.263 C 180.755 131.084 182.029 129.614 183.059 128.097 C 183.575 127.338 184.097 126.469 184.504 125.543 C 184.891 124.664 185.314 123.423 185.314 122 L 175.314 122 Z M 172.464 125.315 L 126.051 171.729 L 133.122 178.8 L 179.536 132.386 L 172.464 125.315 Z" fill="#FFFFFF"></path>
</svg>