<svg xmlns="http://www.w3.org/2000/svg" viewBox="0 0 2416.95 387.89" fill="none">
  <g transform="translate(0 9)">
    <path transform="translate(112.265 0)" d="M 259.463 15.844 C 259.463 13.752 259.076 11.699 258.301 9.801 C 257.526 7.864 256.364 6.159 254.854 4.687 C 253.343 3.176 251.6 2.014 249.74 1.24 C 247.842 0.465 245.712 0 243.658 0 L 0 0 L 0 128.608 L 106.877 128.608 C 112.958 128.608 118.885 131.01 123.224 135.31 C 127.562 139.61 129.964 145.42 129.964 151.541 L 129.964 257.565 L 259.734 257.565 L 259.463 15.844 Z" fill="#0C31FF"></path>
    <path transform="translate(0 0)" d="M 112.227 128.608 L 12.517 128.608 C 10.037 128.608 7.636 127.911 5.583 126.516 C 3.491 125.161 1.941 123.263 0.973 121.016 C 0.004 118.73 -0.267 116.29 0.276 113.888 C 0.74 111.486 1.903 109.278 3.646 107.535 L 112.227 0" fill="#0021DD"></path>
    <path transform="translate(242.114 257.449)" d="M 129.848 0.077 L 21.228 107.729 C 19.485 109.472 17.277 110.634 14.875 111.099 C 12.473 111.564 9.956 111.37 7.67 110.402 C 5.384 109.511 3.448 107.884 2.092 105.869 C 0.736 103.855 0 101.453 0 98.974 L 0 0" fill="#0021DD"></path>
  </g>
  <g transform="translate(491.114 0)">
    <path transform="translate(0 46.249)" d="M 29.406 219.971 C 9.757 198.407 -0.045 167.148 0 126.194 C 0.045 85.24 9.847 53.959 29.406 32.35 C 49.01 10.786 77.608 0.004 115.2 0.004 C 140.103 -0.161 164.81 4.357 188.008 13.315 L 188.008 55.978 C 166.892 45.554 143.645 40.045 120.045 39.871 L 118.767 39.871 C 96.023 39.871 78.191 45.684 65.271 57.309 C 52.352 68.934 45.914 91.785 45.959 125.861 C 45.609 141.244 47.605 156.591 51.881 171.385 C 54.596 181.788 60.523 191.094 68.838 198.007 C 75.614 203.316 83.461 207.129 91.851 209.189 C 100.846 211.277 110.067 212.261 119.305 212.117 C 143.192 212.094 166.766 206.748 188.277 196.477 L 188.277 238.806 C 165.071 247.735 140.369 252.252 115.469 252.117 C 77.877 252.117 49.279 241.335 29.675 219.771" fill="#FFFFFF"></path>
    <path transform="translate(231.967 46.722)" d="M 51.733 80.8 C 47.733 95.504 45.897 110.702 46.283 125.924 C 45.91 141.103 47.746 156.255 51.733 170.916 C 54.224 181.252 59.917 190.559 68.017 197.538 C 74.465 202.83 81.96 206.729 90.021 208.986 C 107.759 212.791 126.115 212.791 143.853 208.986 C 151.922 206.749 159.421 202.848 165.857 197.538 C 173.954 190.546 179.666 181.247 182.208 170.916 C 186.148 156.202 187.961 141.009 187.591 125.791 C 187.961 110.574 186.148 95.381 182.208 80.667 C 179.649 70.343 173.941 61.048 165.857 54.044 C 159.441 48.743 151.966 44.842 143.92 42.597 C 126.182 38.791 107.826 38.791 90.088 42.597 C 82.027 44.854 74.532 48.753 68.085 54.044 C 60.002 61.038 54.312 70.339 51.8 80.667 L 51.733 80.8 Z M 10.484 189.086 C 3.048 168.862 -0.49 147.438 0.055 125.924 C -0.49 104.411 3.048 82.987 10.484 62.763 C 16.011 47.34 25.889 33.806 38.948 23.762 C 50.031 15.548 62.491 9.329 75.756 5.392 C 102.729 -1.797 131.145 -1.797 158.118 5.392 C 171.399 9.342 183.879 15.558 194.993 23.762 C 207.981 33.831 217.787 47.363 223.255 62.763 C 230.749 82.974 234.311 104.404 233.752 125.924 C 234.311 147.445 230.749 168.875 223.255 189.086 C 217.75 204.502 207.896 218.036 194.859 228.087 C 183.744 236.291 171.264 242.507 157.984 246.457 C 131.011 253.646 102.594 253.646 75.621 246.457 C 62.356 242.519 49.897 236.301 38.813 228.087 C 25.754 218.043 15.877 204.508 10.35 189.086" fill="#FFFFFF"></path>
    <path transform="translate(507.782 46.121)" d="M 0 248.652 L 0 25.091 C 32.696 8.728 68.801 0.137 105.443 0 C 136.845 0 161.383 8.053 179.058 24.16 C 196.733 40.266 205.705 62.607 205.974 91.181 L 205.974 248.652 L 159.746 248.652 L 159.746 87.388 C 160.433 75.05 156.451 62.902 148.576 53.311 C 141.084 45.014 126.124 40.843 103.694 40.799 C 83.939 40.735 64.297 43.745 45.488 49.717 L 45.488 248.652 L 0 248.652 Z" fill="#FFFFFF"></path>
    <path transform="translate(759.757 46.255)" d="M 29.406 219.97 C 9.802 198.406 0 167.147 0 126.194 C 0 85.24 9.802 53.958 29.406 32.35 C 49.054 10.786 77.585 0.004 115.2 0.004 C 140.124 -0.155 164.853 4.362 188.075 13.315 L 188.075 55.977 C 166.939 45.544 143.668 40.034 120.045 39.871 L 119.372 39.871 C 96.628 39.871 78.684 45.683 65.54 57.308 C 52.396 68.934 45.937 91.784 46.161 125.861 C 45.777 141.245 47.774 156.597 52.082 171.385 C 54.8 181.77 60.7 191.069 68.972 198.007 C 75.672 203.391 83.445 207.314 91.783 209.521 C 100.778 211.614 109.999 212.598 119.238 212.45 C 143.124 212.42 166.696 207.074 188.21 196.809 L 188.21 239.138 C 164.979 248.062 140.256 252.578 115.335 252.45 C 77.72 252.45 49.189 241.668 29.54 220.104" fill="#FFFFFF"></path>
    <path transform="translate(992.079 46.587)" d="M 45.541 111.148 L 172.651 111.148 C 172.029 103.241 170.609 95.415 168.412 87.787 C 166.03 79.873 162.686 72.275 158.453 65.158 C 153.909 57.386 147.238 51.041 139.208 46.855 C 129.95 42.119 119.613 39.827 109.197 40.2 C 88.427 40.2 73.152 45.502 63.372 56.106 C 53.615 66.755 47.627 85.125 45.541 111.348 L 45.541 111.148 Z M 0.053 129.051 C 0.053 43.017 36.434 0 109.197 0 L 109.735 0 C 142.752 0 169.174 10.693 189.002 32.08 C 208.831 53.466 218.7 82.085 218.61 117.937 C 218.61 129.584 218.139 140.832 217.197 151.214 L 46.281 151.214 C 51.799 193.233 75.036 214.22 115.993 214.176 C 145.575 215.036 174.918 208.705 201.451 195.74 L 201.451 236.539 C 174.015 247.497 144.636 252.906 115.051 252.446 L 113.571 252.446 C 99.92 252.594 86.319 250.778 73.197 247.054 C 60.323 243.172 48.215 237.14 37.398 229.218 C 24.744 219.382 15.272 206.104 10.146 191.015 C 2.948 171.06 -0.473 149.965 0.053 128.785" fill="#FFFFFF"></path>
    <path transform="translate(1263.758 46.173)" d="M 45.296 202.348 C 62.06 208.856 79.909 212.197 97.917 212.198 C 106.685 212.336 115.435 211.374 123.958 209.337 C 131.753 207.073 138.991 203.244 145.222 198.089 C 153.005 191.38 158.543 182.49 161.102 172.598 C 165.093 158.3 166.93 143.499 166.553 128.671 C 166.925 112.747 165.091 96.848 161.102 81.417 C 158.7 70.956 153.249 61.423 145.424 53.996 C 139.562 48.769 132.697 44.763 125.237 42.215 C 117.828 40.083 110.141 39.052 102.425 39.154 C 64.295 39.154 45.229 51.356 45.229 75.759 L 45.229 202.215 L 45.296 202.348 Z M 0.01 341.716 L 0.01 78.821 C -0.202 66.462 2.836 54.261 8.825 43.413 C 12.807 35.449 18.262 28.293 24.908 22.315 C 33.893 15.114 44.263 9.793 55.39 6.675 C 70.638 2.013 86.535 -0.233 102.493 0.019 C 111.52 0.007 120.529 0.809 129.409 2.415 C 139.52 4.498 149.238 8.136 158.209 13.197 C 168.49 18.704 177.624 26.089 185.125 34.961 C 193.91 46.185 200.38 59.006 204.168 72.698 C 209.489 90.925 212.029 109.835 211.704 128.804 C 212.252 149.937 208.853 170.988 201.678 190.901 C 196.483 206.114 186.804 219.442 173.887 229.17 C 162.992 237.045 150.849 243.072 137.955 247.007 C 124.835 250.743 111.232 252.559 97.581 252.398 C 79.786 252.465 62.07 250.045 44.96 245.21 L 44.96 341.716 L 0.01 341.716 Z" fill="#FFFFFF"></path>
    <path transform="translate(1518.001 0)" d="M 0 88.386 L 88.352 0 L 88.352 50.05 L 154.161 50.05 L 154.161 88.386 L 88.352 88.386 L 88.352 229.817 C 88.352 248.851 100.531 258.369 124.89 258.369 L 125.361 258.369 C 135.479 258.611 145.46 256.028 154.161 250.915 L 154.161 291.514 C 143.484 295.853 132.06 298.113 120.516 298.169 L 119.305 298.169 C 112.878 298.111 106.474 297.397 100.194 296.039 C 91.796 294.05 83.632 291.195 75.836 287.52 C 65.885 282.848 57.704 275.152 52.486 265.557 C 45.981 253.663 42.799 240.27 43.267 226.755 L 43.267 88.386 L 0 88.386 Z" fill="#FFFFFF"></path>
    <path transform="translate(1717.908 46.121)" d="M 45.488 170.784 C 45.488 198.427 65.294 212.248 104.905 212.248 L 105.645 212.248 C 142.969 212.248 161.653 198.937 161.697 172.315 L 161.697 132.981 C 147.458 130.929 133.089 129.883 118.699 129.853 C 111.73 129.884 104.776 130.485 97.907 131.65 C 89.989 133.017 82.167 134.885 74.49 137.24 C 66.556 139.575 59.384 143.937 53.697 149.886 C 48.322 155.534 45.379 163.028 45.488 170.784 L 45.488 170.784 Z M 0.269 171.317 C -0.052 160.003 2.646 148.805 8.092 138.85 C 13.538 128.895 21.539 120.535 31.29 114.611 C 51.925 101.034 80.411 94.245 116.748 94.245 C 131.779 94.205 146.796 95.161 161.697 97.107 C 160.755 76.475 154.968 61.766 144.673 52.781 C 134.378 43.796 117.219 39.47 93.6 39.47 C 70.243 39.822 47.103 43.959 25.099 51.716 L 25.099 13.314 C 48.985 4.389 74.325 -0.123 99.858 0.003 C 134.355 0.003 160.98 8.877 179.731 26.625 C 198.482 44.373 207.881 69.708 207.925 102.631 L 207.925 173.247 C 207.914 178.497 207.396 183.734 206.378 188.887 C 204.673 195.814 202.143 202.517 198.842 208.854 C 194.932 216.975 189.418 224.239 182.625 230.218 C 173.623 237.432 163.228 242.754 152.075 245.859 C 136.824 250.508 120.929 252.754 104.972 252.515 C 88.721 252.882 72.517 250.634 56.994 245.859 C 45.694 242.602 35.152 237.175 25.974 229.886 C 18.913 223.81 13.168 216.384 9.084 208.055 C 5.639 201.534 3.061 194.599 1.413 187.423 C 0.484 182.103 0.011 176.715 0 171.317" fill="#FFFFFF"></path>
  </g>
</svg>