<svg xmlns="http://www.w3.org/2000/svg" viewBox="0 0 372 368.789" fill="none">
  <path transform="translate(112.265 0)" d="M 259.463 15.844 C 259.463 13.752 259.076 11.699 258.301 9.801 C 257.526 7.864 256.364 6.159 254.854 4.687 C 253.343 3.176 251.6 2.014 249.74 1.24 C 247.842 0.465 245.712 0 243.658 0 L 0 0 L 0 128.608 L 106.877 128.608 C 112.958 128.608 118.885 131.01 123.224 135.31 C 127.562 139.61 129.964 145.42 129.964 151.541 L 129.964 257.565 L 259.734 257.565 L 259.463 15.844 Z" fill="#0C31FF"></path>
  <path transform="translate(0 0)" d="M 112.227 128.608 L 12.517 128.608 C 10.037 128.608 7.636 127.911 5.583 126.516 C 3.491 125.161 1.941 123.263 0.973 121.016 C 0.004 118.73 -0.267 116.29 0.276 113.888 C 0.74 111.486 1.903 109.278 3.646 107.535 L 112.227 0" fill="#0021DD"></path>
  <path transform="translate(242.114 257.449)" d="M 129.848 0.077 L 21.228 107.729 C 19.485 109.472 17.277 110.634 14.875 111.099 C 12.473 111.564 9.956 111.37 7.67 110.402 C 5.384 109.511 3.448 107.884 2.092 105.869 C 0.736 103.855 0 101.453 0 98.974 L 0 0" fill="#0021DD"></path>
</svg>